<!-- Copyright (c) 2022 Ivan Teplov -->
<svg
  viewBox="0 0 3271 1024"
  fill="none"
  xmlns="http://www.w3.org/2000/svg"
>
  <rect width="3271" height="1024" fill="none" />
  <path d="M276.5 1022V510" stroke="currentColor" stroke-width="54" />
  <circle
    cx="543"
    cy="510.5"
    r="266.5"
    stroke="currentColor"
    stroke-width="54"
  />
  <path
    d="M460.5 509L515.799 563.806C516.188 564.191 516.814 564.192 517.204 563.809L626 457"
    stroke="currentColor"
    stroke-opacity="0.5"
    stroke-width="22"
    stroke-linecap="round"
  />
  <circle
    cx="1077.5"
    cy="608"
    r="169"
    stroke="currentColor"
    stroke-width="54"
  />
  <path d="M1345.5 804V607.666" stroke="currentColor" stroke-width="54" />
  <path
    d="M1514.83 804L1514.83 433.37"
    stroke="currentColor"
    stroke-width="54"
  />
  <path d="M1683.5 804V607.666" stroke="currentColor" stroke-width="54" />
  <mask fill="white" id="path-8-inside-1_2_17">
    <path
      d="M1710.5 608C1710.5 582.261 1705.43 556.774 1695.58 532.994C1685.73 509.214 1671.29 487.607 1653.09 469.407C1634.89 451.207 1613.29 436.77 1589.51 426.92C1565.73 417.07 1540.24 412 1514.5 412C1488.76 412 1463.27 417.07 1439.49 426.92C1415.71 436.77 1394.11 451.207 1375.91 469.407C1357.71 487.607 1343.27 509.214 1333.42 532.994C1323.57 556.774 1318.5 582.261 1318.5 608L1372.72 608C1372.72 589.381 1376.38 570.944 1383.51 553.742C1390.64 536.54 1401.08 520.91 1414.24 507.745C1427.41 494.579 1443.04 484.135 1460.24 477.01C1477.44 469.885 1495.88 466.217 1514.5 466.217C1533.12 466.217 1551.56 469.885 1568.76 477.01C1585.96 484.135 1601.59 494.579 1614.76 507.745C1627.92 520.91 1638.36 536.54 1645.49 553.742C1652.62 570.944 1656.28 589.381 1656.28 608H1710.5Z"
    />
  </mask>
  <path
    d="M1710.5 608C1710.5 582.261 1705.43 556.774 1695.58 532.994C1685.73 509.214 1671.29 487.607 1653.09 469.407C1634.89 451.207 1613.29 436.77 1589.51 426.92C1565.73 417.07 1540.24 412 1514.5 412C1488.76 412 1463.27 417.07 1439.49 426.92C1415.71 436.77 1394.11 451.207 1375.91 469.407C1357.71 487.607 1343.27 509.214 1333.42 532.994C1323.57 556.774 1318.5 582.261 1318.5 608L1372.72 608C1372.72 589.381 1376.38 570.944 1383.51 553.742C1390.64 536.54 1401.08 520.91 1414.24 507.745C1427.41 494.579 1443.04 484.135 1460.24 477.01C1477.44 469.885 1495.88 466.217 1514.5 466.217C1533.12 466.217 1551.56 469.885 1568.76 477.01C1585.96 484.135 1601.59 494.579 1614.76 507.745C1627.92 520.91 1638.36 536.54 1645.49 553.742C1652.62 570.944 1656.28 589.381 1656.28 608H1710.5Z"
    stroke="currentColor"
    stroke-width="108"
    mask="url(#path-8-inside-1_2_17)"
  />
  <circle
    cx="1951.5"
    cy="608"
    r="169"
    stroke="currentColor"
    stroke-width="54"
  />
  <path
    d="M2557.5 266.597L2557.5 608.399"
    stroke="currentColor"
    stroke-width="54"
  />
  <path
    d="M2219.5 608.065C2219.5 514.773 2295.16 439.129 2388.5 439.129C2481.84 439.129 2557.5 514.773 2557.5 608.065C2557.5 701.357 2481.84 777 2388.5 777C2295.16 777 2219.5 701.357 2219.5 608.065Z"
    stroke="currentColor"
    stroke-width="54"
  />
  <circle
    cx="2825.5"
    cy="608"
    r="169"
    stroke="currentColor"
    stroke-width="54"
  />
</svg>
